<svg width="170" height="169" viewBox="0 0 170 169" fill="none" xmlns="http://www.w3.org/2000/svg">
<path d="M149.618 86.9741C151.773 86.9741 153.794 87.8162 155.319 89.332C156.843 90.8563 157.685 92.8858 157.685 95.0332C157.685 97.1806 156.843 99.2017 155.31 100.709C153.786 102.242 151.765 103.084 149.618 103.084C147.462 103.084 145.45 102.242 143.942 100.718C142.418 99.2017 141.576 97.1806 141.576 95.0332C141.576 92.8774 142.427 90.8479 143.942 89.332C145.458 87.8162 147.479 86.9741 149.618 86.9741ZM145.029 99.6312C146.258 100.861 147.883 101.526 149.618 101.526C151.352 101.526 152.994 100.844 154.215 99.6143C155.462 98.4017 156.127 96.7596 156.127 95.0248C156.127 93.2816 155.462 91.6479 154.215 90.4268C152.994 89.1889 151.361 88.5152 149.618 88.5152C147.883 88.5152 146.258 89.1889 145.029 90.4268C143.808 91.6479 143.126 93.2816 143.126 95.0248C143.126 96.7764 143.808 98.4017 145.029 99.6312Z" fill="#F8B917"/>
<path d="M74.9099 28.2952C72.7627 28.2952 70.7417 27.4699 69.226 25.9457C66.0935 22.8046 66.0935 17.7013 69.2344 14.5602C70.7501 13.036 72.7711 12.2107 74.9183 12.2107C77.074 12.2107 79.0949 13.036 80.6191 14.5602C83.76 17.7013 83.76 22.8046 80.6191 25.9457C79.0865 27.4699 77.0656 28.2952 74.9099 28.2952ZM79.4991 15.655C78.2782 14.4339 76.6446 13.7518 74.9015 13.7518C73.1669 13.7518 71.5417 14.4339 70.3123 15.655C67.7777 18.1898 67.7693 22.3246 70.2954 24.8593C71.5333 26.072 73.1669 26.7541 74.8931 26.7541C76.6361 26.7541 78.2697 26.072 79.4907 24.8593C82.0422 22.3077 82.0422 18.1898 79.4991 15.655Z" fill="#F8B917"/>
<path d="M135.151 103.648L52.1408 117.425L65.9338 34.2491L0.000396729 78.5361V76.675L68.0558 30.9732L54.027 115.547L138.435 101.534L93.1408 169.274H91.2714L135.151 103.648Z" fill="#F8B917"/>
<path d="M45.7155 65.1633L34.533 135.051L104.155 123.91L74.1014 169.275H72.2573L100.904 125.99L32.6551 136.92L43.6104 68.4981L3.05176e-05 98.5365V96.6417L45.7155 65.1633Z" fill="#F8B917"/>
<path d="M58.3721 111.109L62.473 82.4604L108.18 61.2896V61.298H108.188L87.019 107L58.3721 111.109ZM63.7613 83.4288L60.0563 109.425L86.0338 105.694L105.267 64.2033L63.7613 83.4288Z" fill="#F8B917"/>
<path d="M148.169 148.508L108.171 169.274H105.081L143.092 149.535L112.777 147.202L97.7298 169.274H96.0036L112.062 145.729L148.169 148.508Z" fill="#F8B917"/>
<path d="M161.668 133.097C163.781 133.097 165.802 133.931 167.309 135.438C170.417 138.554 170.417 143.623 167.293 146.739C165.785 148.255 163.781 149.08 161.651 149.08C159.512 149.08 157.516 148.263 155.992 146.756C152.885 143.623 152.885 138.571 156.009 135.455C157.516 133.931 159.52 133.097 161.668 133.097ZM157.011 145.729C158.249 146.983 159.899 147.657 161.651 147.657C163.402 147.657 165.053 146.967 166.291 145.72C168.85 143.16 168.859 139 166.299 136.432C165.061 135.185 163.402 134.52 161.668 134.52C159.899 134.52 158.24 135.202 157.011 136.449C154.451 139.009 154.451 143.169 157.011 145.729Z" fill="#F8B917"/>
<path d="M118.293 59.1673C116.171 59.1673 114.167 58.3336 112.651 56.8347C109.536 53.7188 109.536 48.6492 112.66 45.5418C114.167 44.026 116.163 43.1923 118.293 43.1923C120.432 43.1923 122.436 44.026 123.943 45.5418C125.442 47.0492 126.293 49.0535 126.293 51.184C126.293 53.3146 125.45 55.3188 123.943 56.8347C122.427 58.3336 120.423 59.1673 118.293 59.1673ZM122.933 46.5439C121.686 45.2976 120.036 44.6155 118.293 44.6155C116.55 44.6155 114.899 45.2976 113.67 46.5439C111.102 49.0956 111.093 53.2641 113.662 55.8325C114.899 57.062 116.55 57.7525 118.293 57.7525C120.044 57.7525 121.695 57.062 122.933 55.8157C124.171 54.5862 124.853 52.9272 124.853 51.184C124.853 49.4408 124.171 47.7903 122.933 46.5439Z" fill="#F8B917"/>
<path d="M23.7043 57.4495L0.000268936 73.6098V71.8834L22.2475 56.7168L20.8076 26.7121L0.000268936 65.2896V62.2917L21.9781 21.5247L23.7043 57.4495Z" fill="#F8B917"/>
<path d="M28.1506 15.9581C26.0286 15.9581 24.0076 15.1413 22.5004 13.6171C19.3931 10.5097 19.3931 5.43168 22.5004 2.32426C24.0076 0.825285 26.0286 0 28.1506 0C30.2894 0 32.302 0.833707 33.8009 2.32426C36.9165 5.4401 36.9165 10.5181 33.8009 13.6255C32.2936 15.1413 30.281 15.9581 28.1506 15.9581ZM32.7988 3.33479C31.5525 2.09687 29.9105 1.40635 28.1506 1.40635C26.4075 1.40635 24.7571 2.09687 23.5193 3.33479C20.951 5.89483 20.951 10.0633 23.5024 12.6234C24.7487 13.8697 26.3991 14.5518 28.1422 14.5518C29.9021 14.5518 31.5525 13.8781 32.7904 12.6234C35.3587 10.0549 35.3587 5.89483 32.7988 3.33479Z" fill="#F8B917"/>
</svg>
